<svg width="30.333801" height="27.681274" viewBox="0 0 30.3338 27.6813" fill="none" xmlns="http://www.w3.org/2000/svg" xmlns:xlink="http://www.w3.org/1999/xlink">
	<path id="Path" d="M3.06 10.64L3.04 10.62C3.04 9.78 3.7 9.12 4.54 9.12C5.38 9.12 6.04 9.78 6.04 10.62L6.02 10.64L3.06 10.64ZM24.31 10.64L24.29 10.62C24.29 9.78 24.95 9.12 25.79 9.12C26.63 9.12 27.29 9.78 27.29 10.62L27.27 10.64L24.31 10.64Z" fill="#000000" fill-opacity="0" fill-rule="nonzero"/>
	<path id="Path" d="M4.54 10.62L4.54 24.62C4.54 25.48 5.22 26.18 6.05 26.18L24.27 26.18C25.11 26.18 25.79 25.48 25.79 24.62L25.79 10.62" stroke="#26354C" stroke-opacity="1.000000" stroke-width="3.000000" stroke-linecap="round"/>
	<path id="Path" d="M29.73 11.01L29.76 11C30.41 11.53 30.52 12.45 30 13.11C29.47 13.77 28.54 13.87 27.89 13.35L27.88 13.32L29.73 11.01ZM2.44 13.32L2.44 13.35C1.78 13.87 0.85 13.77 0.33 13.11C-0.2 12.45 -0.09 11.53 0.57 11L0.59 11.01L2.44 13.32Z" fill="#000000" fill-opacity="0" fill-rule="nonzero"/>
	<path id="Path" d="M28.82 12.18L15.63 1.66C15.35 1.44 14.97 1.44 14.7 1.66L1.5 12.18" stroke="#26354C" stroke-opacity="1.000000" stroke-width="3.000000" stroke-linecap="round"/>
</svg>
