<svg width="32.000000" height="32.000000" viewBox="0 0 32 32" fill="none" xmlns="http://www.w3.org/2000/svg" xmlns:xlink="http://www.w3.org/1999/xlink">
	<desc>
			Created with Pixso.
	</desc>
	<defs/>
	<path id="path" d="M16 0C7.16 0 0 7.16 0 16C0 24.83 7.16 32 16 32C24.83 32 32 24.83 32 16C32 7.16 24.83 0 16 0ZM17.88 16C17.88 16 22.07 20.18 22.27 20.39C22.79 20.91 22.79 21.75 22.27 22.27C21.75 22.79 20.91 22.79 20.39 22.27C20.18 22.07 16 17.88 16 17.88C16 17.88 11.81 22.07 11.6 22.27C11.08 22.79 10.24 22.79 9.72 22.27C9.2 21.75 9.2 20.91 9.72 20.39C9.92 20.18 14.11 16 14.11 16C14.11 16 9.92 11.81 9.72 11.6C9.2 11.08 9.2 10.24 9.72 9.72C10.24 9.2 11.08 9.2 11.6 9.72C11.81 9.92 16 14.11 16 14.11C16 14.11 20.18 9.92 20.39 9.72C20.91 9.2 21.75 9.2 22.27 9.72C22.79 10.24 22.79 11.08 22.27 11.6C22.07 11.81 17.88 16 17.88 16Z" fill="#E75A62" fill-opacity="1.000000" fill-rule="nonzero"/>
</svg>
