<svg width="32.000000" height="32.000000" viewBox="0 0 32 32" fill="none" xmlns="http://www.w3.org/2000/svg" xmlns:xlink="http://www.w3.org/1999/xlink">
	<desc>
			Created with Pixso.
	</desc>
	<defs/>
	<path id="path" d="M16 0C7.17 0 0 7.17 0 16C0 24.82 7.17 32 16 32C24.82 32 32 24.82 32 16C32 7.17 24.82 0 16 0ZM22.84 13.24L14.84 21.24C14.61 21.48 14.3 21.6 14 21.6C13.69 21.6 13.38 21.48 13.15 21.24L9.15 17.24C8.68 16.78 8.68 16.02 9.15 15.55C9.62 15.08 10.37 15.08 10.84 15.55L13.99 18.7L21.15 11.55C21.61 11.08 22.37 11.08 22.84 11.55C23.31 12.02 23.31 12.78 22.84 13.24Z" fill="#0D977D" fill-opacity="1.000000" fill-rule="nonzero"/>
</svg>
