<svg width="32.000000" height="28.159912" viewBox="0 0 32 28.1599" fill="none" xmlns="http://www.w3.org/2000/svg" xmlns:xlink="http://www.w3.org/1999/xlink">
	<desc>
			Created with Pixso.
	</desc>
	<defs/>
	<g opacity="0.969000">
		<path id="path" d="M32 26.56C32 27.09 32 27.62 32 28.15C21.33 28.15 10.66 28.15 0 28.15C0 27.62 0 27.09 0 26.56C4.92 18.31 9.77 9.99 14.56 1.6C14.89 0.93 15.37 0.39 16 0C16.62 0.39 17.1 0.93 17.44 1.6C22.22 9.99 27.07 18.31 32 26.56ZM15.36 10.24C15.88 10.17 16.36 10.27 16.79 10.56C17.01 13.54 17.01 16.53 16.79 19.52C16.26 19.94 15.73 19.94 15.2 19.52C14.94 16.4 14.99 13.3 15.36 10.24ZM15.36 21.76C16.77 21.61 17.3 22.25 16.95 23.67C16.32 23.67 15.68 23.67 15.04 23.67C14.98 23 15.09 22.36 15.36 21.76Z" fill="#F2C957" fill-opacity="1.000000" fill-rule="evenodd"/>
	</g>
</svg>
