<svg width="16.000000" height="15.747803" viewBox="0 0 16 15.7478" fill="none" xmlns="http://www.w3.org/2000/svg" xmlns:xlink="http://www.w3.org/1999/xlink">
	<path id="path" d="M14.27 10.07C14.19 10.13 12.55 11.87 12.55 13.09C12.55 14.37 13.37 15.19 14.27 15.24C15.05 15.28 16 14.47 16 13.09C16 11.79 14.35 10.13 14.27 10.07ZM5.31 15.24C5.63 15.56 6.07 15.74 6.53 15.74C6.99 15.74 7.42 15.56 7.74 15.24L13.77 9.21L13.16 8.6L6.53 1.97L4.55 0L3.33 1.21L5.31 3.19L0.5 8C0.17 8.32 0 8.75 0 9.21C0 9.67 0.17 10.1 0.5 10.43L5.31 15.24ZM6.53 4.4L11.33 9.21L1.72 9.21L6.53 4.4Z" fill="#26354C" fill-opacity="1.000000" fill-rule="nonzero"/>
</svg>
