<svg width="18.000000" height="20.000000" viewBox="0 0 18 20" fill="none" xmlns="http://www.w3.org/2000/svg" xmlns:xlink="http://www.w3.org/1999/xlink">
	<path id="path" d="M6.02 9.02L6 9C6 8.43 6.44 8 7 8C7.56 8 8 8.43 8 9L7.97 9.02L6.02 9.02ZM7.97 14.98L8 15C8 15.56 7.56 16 7 16C6.44 16 6 15.56 6 15L6.02 14.98L7.97 14.98Z" fill="#000000" fill-opacity="0" fill-rule="nonzero"/>
	<path id="path" d="M7 9L7 15" stroke="#E75A62" stroke-opacity="1.000000" stroke-width="2.000000" stroke-linejoin="round" stroke-linecap="round"/>
	<path id="path" d="M10.02 9.02L10 9C10 8.43 10.44 8 11 8C11.56 8 12 8.43 12 9L11.98 9.02L10.02 9.02ZM11.98 14.98L12 15C12 15.56 11.56 16 11 16C10.44 16 10 15.56 10 15L10.02 14.98L11.98 14.98Z" fill="#000000" fill-opacity="0" fill-rule="nonzero"/>
	<path id="path" d="M11 9L11 15" stroke="#E75A62" stroke-opacity="1.000000" stroke-width="2.000000" stroke-linejoin="round" stroke-linecap="round"/>
	<path id="path" d="M1.02 5.97L1 6C0.44 6 0 5.56 0 5C0 4.43 0.44 4 1 4L1.02 4.02L1.02 5.97ZM16.98 4.02L17 4C17.56 4 18 4.43 18 5C18 5.56 17.56 6 17 6L16.98 5.97L16.98 4.02Z" fill="#000000" fill-opacity="0" fill-rule="nonzero"/>
	<path id="path" d="M1 5L17 5" stroke="#E75A62" stroke-opacity="1.000000" stroke-width="2.000000" stroke-linejoin="round" stroke-linecap="round"/>
	<path id="path" d="M3 5L9 5L15 5L15 16C15 17.65 13.65 19 12 19L6 19C4.34 19 3 17.65 3 16L3 5Z" fill="#000000" fill-opacity="0" fill-rule="nonzero"/>
	<path id="path" d="M9 5L15 5L15 16C15 17.65 13.65 19 12 19L6 19C4.34 19 3 17.65 3 16L3 5L9 5Z" stroke="#E75A62" stroke-opacity="1.000000" stroke-width="2.000000" stroke-linejoin="round"/>
	<path id="path" d="M6 3C6 1.89 6.89 1 8 1L10 1C11.1 1 12 1.89 12 3L12 5L6 5L6 3Z" fill="#000000" fill-opacity="0" fill-rule="nonzero"/>
	<path id="path" d="M8 1L10 1C11.1 1 12 1.89 12 3L12 5L6 5L6 3C6 1.89 6.89 1 8 1Z" stroke="#E75A62" stroke-opacity="1.000000" stroke-width="2.000000" stroke-linejoin="round"/>
</svg>
