<svg width="27.321960" height="28.000000" viewBox="0 0 27.322 28" fill="none" xmlns="http://www.w3.org/2000/svg" xmlns:xlink="http://www.w3.org/1999/xlink">
	<path id="path" d="M16.39 4.6L15.02 4.6C15.02 5.22 15.42 5.77 16 5.94L16.39 4.6ZM18.21 5.37L17.55 6.6C18.09 6.9 18.74 6.8 19.17 6.36L18.21 5.37ZM19.45 4.1L18.49 3.11L19.45 4.1ZM21.38 4.1L20.42 5.09L21.38 4.1ZM23.32 6.08L24.28 5.09L23.32 6.08ZM23.32 8.06L22.35 7.07L23.32 8.06ZM22.07 9.33L21.1 8.34C20.68 8.78 20.58 9.45 20.87 10L22.07 9.33ZM22.82 11.2L21.51 11.59C21.69 12.19 22.22 12.6 22.82 12.6L22.82 11.2ZM22.82 16.79L22.82 15.4C22.22 15.4 21.69 15.8 21.51 16.4L22.82 16.79ZM22.07 18.66L20.87 17.99C20.58 18.54 20.68 19.21 21.1 19.65L22.07 18.66ZM23.32 19.93L24.28 18.94L23.32 19.93ZM23.32 21.91L22.35 20.92L23.32 21.91ZM21.38 23.89L22.35 24.88L21.38 23.89ZM18.21 22.62L19.17 21.63C18.74 21.19 18.09 21.09 17.55 21.39L18.21 22.62ZM16.39 23.39L16 22.05C15.42 22.22 15.02 22.77 15.02 23.39L16.39 23.39ZM10.92 23.39L12.29 23.39C12.29 22.77 11.89 22.22 11.31 22.05L10.92 23.39ZM9.11 22.62L9.76 21.39C9.23 21.09 8.57 21.19 8.14 21.63L9.11 22.62ZM7.86 23.89L6.89 22.9L7.86 23.89ZM5.93 23.89L4.96 24.88L5.93 23.89ZM4 21.91L3.03 22.9L4 21.91ZM4 19.93L3.03 18.94L4 19.93ZM5.24 18.66L6.21 19.65C6.64 19.21 6.73 18.54 6.44 17.99L5.24 18.66ZM4.49 16.79L5.8 16.4C5.63 15.8 5.09 15.4 4.49 15.4L4.49 16.79ZM4.49 11.2L4.49 12.6C5.09 12.6 5.63 12.19 5.8 11.59L4.49 11.2ZM5.24 9.33L6.44 10C6.73 9.45 6.64 8.78 6.21 8.34L5.24 9.33ZM4 8.06L3.03 9.05L4 8.06ZM4 6.08L4.96 7.07L4 6.08ZM5.93 4.1L6.89 5.09L5.93 4.1ZM7.86 4.1L8.83 3.11L7.86 4.1ZM9.11 5.37L8.14 6.36C8.57 6.8 9.23 6.9 9.76 6.6L9.11 5.37ZM10.92 4.6L11.31 5.94C11.89 5.77 12.29 5.22 12.29 4.6L10.92 4.6ZM12.29 0C10.78 0 9.56 1.25 9.56 2.8L12.29 2.8L12.29 0ZM15.02 0L12.29 0L12.29 2.8L15.02 2.8L15.02 0ZM17.75 2.8C17.75 1.25 16.53 0 15.02 0L15.02 2.8L17.75 2.8ZM17.75 4.6L17.75 2.8L15.02 2.8L15.02 4.6L17.75 4.6ZM18.86 4.14C18.2 3.78 17.51 3.48 16.78 3.26L16 5.94C16.54 6.11 17.06 6.33 17.55 6.6L18.86 4.14ZM18.49 3.11L17.24 4.38L19.17 6.36L20.42 5.09L18.49 3.11ZM22.35 3.11C21.28 2.01 19.55 2.01 18.49 3.11L20.42 5.09L22.35 3.11ZM24.28 5.09L22.35 3.11L20.42 5.09L22.35 7.07L24.28 5.09ZM24.28 9.05C25.35 7.95 25.35 6.18 24.28 5.09L22.35 7.07L24.28 9.05ZM23.04 10.32L24.28 9.05L22.35 7.07L21.1 8.34L23.04 10.32ZM24.13 10.8C23.92 10.05 23.63 9.34 23.27 8.67L20.87 10C21.13 10.5 21.35 11.04 21.51 11.59L24.13 10.8ZM22.82 12.6L24.58 12.6L24.58 9.8L22.82 9.8L22.82 12.6ZM24.58 12.6L27.32 12.6C27.32 11.05 26.09 9.8 24.58 9.8L24.58 12.6ZM24.58 12.6L24.58 15.4L27.32 15.4L27.32 12.6L24.58 12.6ZM24.58 15.4L24.58 18.2C26.09 18.2 27.32 16.94 27.32 15.4L24.58 15.4ZM24.58 15.4L22.82 15.4L22.82 18.2L24.58 18.2L24.58 15.4ZM23.27 19.32C23.63 18.65 23.92 17.94 24.13 17.19L21.51 16.4C21.35 16.95 21.13 17.49 20.87 17.99L23.27 19.32ZM24.28 18.94L23.04 17.67L21.1 19.65L22.35 20.92L24.28 18.94ZM24.28 22.9C25.35 21.81 25.35 20.04 24.28 18.94L22.35 20.92L24.28 22.9ZM22.35 24.88L24.28 22.9L22.35 20.92L20.42 22.9L22.35 24.88ZM18.49 24.88C19.55 25.98 21.28 25.98 22.35 24.88L20.42 22.9L18.49 24.88ZM17.24 23.61L18.49 24.88L20.42 22.9L19.17 21.63L17.24 23.61ZM16.78 24.73C17.51 24.51 18.2 24.21 18.86 23.85L17.55 21.39C17.06 21.66 16.54 21.88 16 22.05L16.78 24.73ZM17.75 25.2L17.75 23.39L15.02 23.39L15.02 25.2L17.75 25.2ZM15.02 28C16.53 28 17.75 26.74 17.75 25.2L15.02 25.2L15.02 28ZM12.29 28L15.02 28L15.02 25.2L12.29 25.2L12.29 28ZM9.56 25.2C9.56 26.74 10.78 28 12.29 28L12.29 25.2L9.56 25.2ZM9.56 23.39L9.56 25.2L12.29 25.2L12.29 23.39L9.56 23.39ZM8.46 23.85C9.11 24.21 9.81 24.51 10.53 24.73L11.31 22.05C10.77 21.88 10.25 21.66 9.76 21.39L8.46 23.85ZM8.83 24.88L10.07 23.61L8.14 21.63L6.89 22.9L8.83 24.88ZM4.96 24.88C6.03 25.98 7.76 25.98 8.83 24.88L6.89 22.9L4.96 24.88ZM3.03 22.9L4.96 24.88L6.89 22.9L4.96 20.92L3.03 22.9ZM3.03 18.94C1.96 20.04 1.96 21.81 3.03 22.9L4.96 20.92L3.03 18.94ZM4.28 17.67L3.03 18.94L4.96 20.92L6.21 19.65L4.28 17.67ZM3.18 17.19C3.4 17.94 3.69 18.65 4.04 19.32L6.44 17.99C6.18 17.49 5.96 16.95 5.8 16.4L3.18 17.19ZM4.49 15.4L2.73 15.4L2.73 18.2L4.49 18.2L4.49 15.4ZM2.73 15.4L0 15.4C0 16.94 1.22 18.2 2.73 18.2L2.73 15.4ZM2.73 15.4L2.73 12.6L0 12.6L0 15.4L2.73 15.4ZM2.73 12.6L2.73 9.8C1.22 9.8 0 11.05 0 12.6L2.73 12.6ZM2.73 12.6L4.49 12.6L4.49 9.8L2.73 9.8L2.73 12.6ZM4.04 8.67C3.69 9.34 3.4 10.05 3.18 10.8L5.8 11.59C5.96 11.04 6.18 10.5 6.44 10L4.04 8.67ZM3.03 9.05L4.28 10.32L6.21 8.34L4.96 7.07L3.03 9.05ZM3.03 5.09C1.96 6.18 1.96 7.95 3.03 9.05L4.96 7.07L3.03 5.09ZM4.96 3.11L3.03 5.09L4.96 7.07L6.89 5.09L4.96 3.11ZM8.83 3.11C7.76 2.01 6.03 2.01 4.96 3.11L6.89 5.09L8.83 3.11ZM10.07 4.38L8.83 3.11L6.89 5.09L8.14 6.36L10.07 4.38ZM10.53 3.26C9.81 3.48 9.11 3.78 8.46 4.14L9.76 6.6C10.25 6.33 10.77 6.11 11.31 5.94L10.53 3.26ZM9.56 2.8L9.56 4.6L12.29 4.6L12.29 2.8L9.56 2.8Z" fill="#26354C" fill-opacity="1.000000" fill-rule="nonzero"/>
	<ellipse id="circle" cx="13.660950" cy="14.000000" rx="4.098296" ry="4.200002" fill="#000000" fill-opacity="0"/>
	<ellipse id="circle" cx="13.660950" cy="14.000000" rx="4.098296" ry="4.200002" stroke="#26354C" stroke-opacity="1.000000" stroke-width="3.000000" stroke-linejoin="round"/>
</svg>
