<svg width="27.321960" height="32.331665" viewBox="0 0 27.322 32.3317" fill="none" xmlns="http://www.w3.org/2000/svg" xmlns:xlink="http://www.w3.org/1999/xlink">
	<path id="path" d="M13.66 0L27.32 8.08L27.32 24.24L13.66 32.33L0 24.24L0 8.08L13.66 0ZM3.03 11.49L3.03 22.45L12.14 27.84L12.14 16.88L3.03 11.49ZM24.28 11.49L15.17 16.88L15.17 27.84L24.28 22.45L24.28 11.49ZM13.66 3.59L4.7 8.89L13.66 14.18L22.61 8.89L13.66 3.59Z" fill="#26354C" fill-opacity="1.000000" fill-rule="evenodd"/>
	<path id="path" d="M27.32 8.08L27.32 24.24L13.66 32.33L0 24.24L0 8.08L13.66 0L27.32 8.08ZM3.03 22.45L12.14 27.84L12.14 16.88L3.03 11.49L3.03 22.45ZM15.17 16.88L15.17 27.84L24.28 22.45L24.28 11.49L15.17 16.88ZM4.7 8.89L13.66 14.18L22.61 8.89L13.66 3.59L4.7 8.89Z" stroke="#000000" stroke-opacity="0" stroke-width="1.562500" stroke-linejoin="round" stroke-dasharray="0 0"/>
</svg>
