<svg width="27.321960" height="28.000000" viewBox="0 0 27.322 28" fill="none" xmlns="http://www.w3.org/2000/svg" xmlns:xlink="http://www.w3.org/1999/xlink">
	<path id="profile-[#1341]" d="M13.66 14C10.63 14 8.17 11.48 8.17 8.4C8.17 5.31 10.63 2.79 13.66 2.79C16.68 2.79 19.15 5.31 19.15 8.4C19.15 11.48 16.68 14 13.66 14ZM18.81 14.94C20.99 13.15 22.26 10.26 21.8 7.09C21.25 3.42 18.26 0.48 14.64 0.05C9.65 -0.54 5.42 3.42 5.42 8.4C5.42 11.04 6.62 13.4 8.5 14.94C3.89 16.7 0.53 20.85 0 26.44C-0.08 27.27 0.56 28 1.37 28C2.07 28 2.67 27.46 2.73 26.75C3.28 20.5 7.97 16.79 13.66 16.79C19.34 16.79 24.03 20.5 24.58 26.75C24.65 27.46 25.24 28 25.94 28C26.75 28 27.39 27.27 27.31 26.44C26.78 20.85 23.42 16.7 18.81 14.94Z" fill="#26354C" fill-opacity="1.000000" fill-rule="evenodd"/>
	<path id="profile-[#1341]" d="M8.17 8.4C8.17 5.31 10.63 2.79 13.66 2.79C16.68 2.79 19.15 5.31 19.15 8.4C19.15 11.48 16.68 14 13.66 14C10.63 14 8.17 11.48 8.17 8.4ZM21.8 7.09C21.25 3.42 18.26 0.48 14.64 0.05C9.65 -0.54 5.42 3.42 5.42 8.4C5.42 11.04 6.62 13.4 8.5 14.94C3.89 16.7 0.53 20.85 0 26.44C-0.08 27.27 0.56 28 1.37 28C2.07 28 2.67 27.46 2.73 26.75C3.28 20.5 7.97 16.79 13.66 16.79C19.34 16.79 24.03 20.5 24.58 26.75C24.65 27.46 25.24 28 25.94 28C26.75 28 27.39 27.27 27.31 26.44C26.78 20.85 23.42 16.7 18.81 14.94C20.99 13.15 22.26 10.26 21.8 7.09Z" stroke="#000000" stroke-opacity="0" stroke-width="40.000000"/>
</svg>
