<svg width="27.321960" height="28.000000" viewBox="0 0 27.322 28" fill="none" xmlns="http://www.w3.org/2000/svg" xmlns:xlink="http://www.w3.org/1999/xlink">
	<path id="path" d="M8.19 0L19.12 0C20.21 0 21.25 0.21 22.26 0.63C23.26 1.06 24.15 1.67 24.92 2.46C25.68 3.24 26.28 4.15 26.69 5.18C27.11 6.21 27.32 7.28 27.32 8.4L27.32 19.6C27.32 20.71 27.11 21.78 26.69 22.81C26.28 23.84 25.68 24.75 24.92 25.53C24.15 26.32 23.26 26.93 22.26 27.36C21.25 27.78 20.21 28 19.12 28L8.19 28C7.1 28 6.06 27.78 5.05 27.36C4.05 26.93 3.16 26.32 2.4 25.53C1.63 24.75 1.03 23.84 0.62 22.81C0.2 21.78 0 20.71 0 19.6L0 8.4C0 7.28 0.2 6.21 0.62 5.18C1.03 4.15 1.63 3.24 2.4 2.46C3.16 1.67 4.05 1.06 5.05 0.63C6.06 0.21 7.1 0 8.19 0ZM8.19 2.79C6.68 2.79 5.39 3.34 4.33 4.44C3.26 5.53 2.73 6.85 2.73 8.4L2.73 19.6C2.73 21.14 3.26 22.46 4.33 23.55C5.39 24.65 6.68 25.2 8.19 25.2L19.12 25.2C20.63 25.2 21.92 24.65 22.98 23.55C24.05 22.46 24.58 21.14 24.58 19.6L24.58 8.4C24.58 6.85 24.05 5.53 22.98 4.44C21.92 3.34 20.63 2.79 19.12 2.79L8.19 2.79ZM16.39 12.6L20.49 12.6C21.4 12.6 21.85 13.06 21.85 14C21.85 14.93 21.4 15.4 20.49 15.4L16.39 15.4C15.48 15.4 15.02 14.93 15.02 14C15.02 13.06 15.48 12.6 16.39 12.6ZM13.66 18.2L20.49 18.2C21.4 18.2 21.85 18.66 21.85 19.6C21.85 20.53 21.4 21 20.49 21L13.66 21C12.75 21 12.29 20.53 12.29 19.6C12.29 18.66 12.75 18.2 13.66 18.2ZM13.66 7L20.49 7C21.4 7 21.85 7.46 21.85 8.4C21.85 9.33 21.4 9.79 20.49 9.79L13.66 9.79C12.75 9.79 12.29 9.33 12.29 8.4C12.29 7.46 12.75 7 13.66 7ZM7.96 14.34L10.86 11.36C11.5 10.7 12.14 10.7 12.79 11.36C13.43 12.02 13.43 12.68 12.79 13.34L8.92 17.3C8.28 17.96 7.64 17.96 6.99 17.3L5.06 15.33C4.44 14.67 4.44 14.01 5.08 13.36C5.71 12.71 6.35 12.71 6.99 13.35L7.96 14.34Z" fill="#26354C" fill-opacity="1.000000" fill-rule="nonzero"/>
</svg>
