<svg width="16.000000" height="15.640137" viewBox="0 0 16 15.6401" fill="none" xmlns="http://www.w3.org/2000/svg" xmlns:xlink="http://www.w3.org/1999/xlink">
	<path id="Vector" d="M1 14.64L1 11.14L10.51 1.63C10.85 1.28 11.03 1.11 11.22 1.04C11.4 0.98 11.59 0.98 11.77 1.04C11.96 1.11 12.14 1.28 12.48 1.62L14.01 3.15C14.35 3.49 14.52 3.67 14.59 3.86C14.65 4.04 14.65 4.23 14.59 4.41C14.53 4.61 14.35 4.78 14.01 5.12L4.5 14.64L1 14.64ZM14.98 13.66L15 13.64C15.56 13.64 16 14.08 16 14.64C16 15.2 15.56 15.64 15 15.64L14.98 15.62L14.98 13.66Z" fill="#000000" fill-opacity="0" fill-rule="nonzero"/>
	<path id="Vector" d="M1 14.64L4.5 14.64L14.01 5.12C14.35 4.78 14.53 4.61 14.59 4.41C14.65 4.23 14.65 4.04 14.59 3.86C14.52 3.67 14.35 3.49 14.01 3.15L12.48 1.62C12.14 1.28 11.96 1.11 11.77 1.04C11.59 0.98 11.4 0.98 11.22 1.04C11.03 1.11 10.85 1.28 10.51 1.63L1 11.14L1 14.64L15 14.64" stroke="#26354C" stroke-opacity="1.000000" stroke-width="2.000000" stroke-linejoin="round" stroke-linecap="round"/>
</svg>
