<svg width="162.893188" height="186.260010" viewBox="0 0 162.893 186.26" fill="none" xmlns="http://www.w3.org/2000/svg" xmlns:xlink="http://www.w3.org/1999/xlink">
	<path id="path" d="M32.38 0C37.99 0 43.6 0 49.38 0C49.38 4.94 49.38 9.89 49.38 15C70.17 15 90.96 15 112.38 15C112.38 10.05 112.38 5.1 112.38 0C117.99 0 123.6 0 129.38 0C129.38 4.94 129.38 9.89 129.38 15C131.17 14.93 132.97 14.87 134.82 14.81C143.19 14.84 149.65 16.46 155.88 22.25C160.65 27.79 162.49 34.11 162.53 41.31C162.54 42.92 162.54 42.92 162.55 44.57C162.55 45.74 162.55 46.92 162.56 48.13C162.56 49.37 162.57 50.62 162.58 51.9C162.6 56.02 162.61 60.13 162.62 64.25C162.62 65.67 162.63 67.1 162.63 68.52C162.65 75.2 162.66 81.88 162.67 88.56C162.68 96.25 162.71 103.95 162.75 111.64C162.78 117.6 162.79 123.55 162.8 129.51C162.8 133.06 162.81 136.62 162.83 140.17C162.86 144.14 162.86 148.11 162.85 152.08C162.87 153.83 162.87 153.83 162.89 155.61C162.83 164.07 161.04 170.56 156.69 177.81C148.02 186.01 138.57 186.15 127.26 186.14C126.16 186.14 125.07 186.15 123.93 186.15C120.31 186.16 116.69 186.16 113.08 186.16C110.55 186.17 108.03 186.17 105.5 186.17C100.21 186.18 94.93 186.18 89.64 186.18C83.55 186.18 77.45 186.19 71.36 186.21C65.48 186.22 59.59 186.22 53.71 186.22C51.22 186.23 48.72 186.23 46.23 186.24C42.74 186.25 39.25 186.24 35.75 186.24C34.73 186.24 33.71 186.25 32.66 186.26C22.65 186.21 13.99 184.97 6.38 178C2.15 172.19 0.26 166.82 0.24 159.68C0.23 158.6 0.23 157.52 0.22 156.41C0.22 155.23 0.22 154.06 0.22 152.84C0.21 151.6 0.21 150.35 0.2 149.07C0.19 145.66 0.18 142.25 0.18 138.84C0.18 136.7 0.17 134.57 0.17 132.43C0.15 125.75 0.14 119.06 0.14 112.38C0.14 104.68 0.12 96.97 0.09 89.27C0.07 83.31 0.06 77.35 0.06 71.38C0.06 67.83 0.05 64.27 0.03 60.71C0.01 56.74 0.02 52.77 0.02 48.8C0.01 47.63 0 46.46 0 45.26C0.04 36.11 1.23 28.38 7.63 21.5C15.11 15.06 22.94 14.88 32.38 15C32.38 10.05 32.38 5.1 32.38 0ZM17.38 64C17.28 80.23 17.17 96.46 17.07 113.18C17.02 118.31 16.98 123.43 16.93 128.71C16.91 133.3 16.91 133.3 16.9 137.9C16.89 139.95 16.88 141.99 16.85 144.04C16.81 147.14 16.81 150.24 16.81 153.34C16.79 154.25 16.78 155.16 16.76 156.1C16.79 160.51 16.94 162.41 19.66 166.04C23.48 168.79 26.48 169.12 31.12 169.14C32.07 169.15 33.01 169.16 33.99 169.16C35.03 169.17 36.06 169.17 37.13 169.17C38.22 169.18 39.32 169.19 40.44 169.19C44.07 169.21 47.69 169.22 51.31 169.23C52.55 169.24 53.79 169.24 55.06 169.25C60.93 169.26 66.8 169.28 72.66 169.29C79.43 169.3 86.2 169.32 92.96 169.36C98.83 169.4 104.7 169.41 110.56 169.41C113.06 169.42 115.55 169.43 118.05 169.45C121.53 169.47 125.02 169.47 128.5 169.47C129.53 169.48 130.57 169.49 131.63 169.5C136.07 169.47 138.64 169.45 142.5 167.09C145.06 164.23 145.5 162.74 145.5 159C145.5 158.16 145.5 157.33 145.5 156.47C145.5 155.55 145.5 154.63 145.49 153.68C145.49 152.7 145.49 151.72 145.49 150.71C145.49 147.52 145.49 144.33 145.48 141.14C145.48 139.18 145.48 137.22 145.47 135.25C145.47 127.96 145.46 120.66 145.44 113.37C145.42 97.08 145.4 80.78 145.38 64C103.14 64 60.9 64 17.38 64Z" fill="#26354C" fill-opacity="1.000000" fill-rule="nonzero"/>
	<path id="path" d="M90.38 121C101.93 121 113.48 121 125.38 121C125.38 130.57 125.38 140.14 125.38 150C113.83 150 102.28 150 90.38 150C90.38 140.42 90.38 130.86 90.38 121Z" fill="#26354C" fill-opacity="1.000000" fill-rule="nonzero"/>
	<path id="path" d="M37.38 121C48.93 121 60.48 121 72.38 121C72.38 130.57 72.38 140.14 72.38 150C60.83 150 49.28 150 37.38 150C37.38 140.42 37.38 130.86 37.38 121Z" fill="#26354C" fill-opacity="1.000000" fill-rule="nonzero"/>
	<path id="path" d="M90.38 80C101.93 80 113.48 80 125.38 80C125.38 89.57 125.38 99.13 125.38 109C113.83 109 102.28 109 90.38 109C90.38 99.42 90.38 89.86 90.38 80Z" fill="#26354C" fill-opacity="1.000000" fill-rule="nonzero"/>
	<path id="path" d="M37.38 80C48.93 80 60.48 80 72.38 80C72.38 89.57 72.38 99.13 72.38 109C60.83 109 49.28 109 37.38 109C37.38 99.42 37.38 89.86 37.38 80Z" fill="#26354C" fill-opacity="1.000000" fill-rule="nonzero"/>
</svg>
