<svg width="32.000000" height="32.000000" viewBox="0 0 32 32" fill="none" xmlns="http://www.w3.org/2000/svg" xmlns:xlink="http://www.w3.org/1999/xlink">
	<desc>
			Created with Pixso.
	</desc>
	<defs/>
	<path id="path" d="M16 0C7.16 0 0 7.16 0 16C0 24.83 7.16 32 16 32C24.83 32 32 24.83 32 16C32 7.16 24.83 0 16 0ZM17.33 24L14.66 24L14.66 14.66L17.33 14.66L17.33 24ZM16 11.33C14.89 11.33 14 10.43 14 9.33C14 8.22 14.89 7.33 16 7.33C17.1 7.33 18 8.22 18 9.33C18 10.43 17.1 11.33 16 11.33Z" fill="#4797D4" fill-opacity="1.000000" fill-rule="nonzero"/>
</svg>
