<svg width="27.321960" height="28.000000" viewBox="0 0 27.322 28" fill="none" xmlns="http://www.w3.org/2000/svg" xmlns:xlink="http://www.w3.org/1999/xlink">
	<desc>
			Created with Pixso.
	</desc>
	<defs/>
	<path id="path" d="M15.36 21L11.95 21L11.95 24.5L15.36 24.5L15.36 21ZM23.9 17.5L25.61 17.5C26.55 17.5 27.32 18.27 27.32 19.25C27.32 20.21 26.56 21 25.61 21L18.78 21L18.78 24.5C18.78 25.46 18.45 26.29 17.78 26.97C17.11 27.65 16.31 27.99 15.37 28L11.95 28C11 28 10.2 27.66 9.53 26.97C8.86 26.29 8.53 25.46 8.53 24.5L8.53 21L1.7 21C0.76 21 0 20.22 0 19.25C0 18.28 0.75 17.5 1.7 17.5L3.41 17.5L3.41 3.51C3.41 2.54 3.75 1.71 4.42 1.03C5.09 0.34 5.89 0 6.84 0L20.47 0C21.42 0 22.23 0.34 22.9 1.03C23.57 1.71 23.9 2.54 23.9 3.51L23.9 17.5ZM6.83 5.24L6.83 17.5L20.49 17.5L20.49 5.24C20.49 4.29 19.72 3.5 18.78 3.5L8.53 3.5C7.6 3.5 6.83 4.28 6.83 5.24Z" fill="#26354C" fill-opacity="1.000000" fill-rule="evenodd"/>
</svg>
